<?xml version="1.0" encoding="UTF-8"?>
<!DOCTYPE svg PUBLIC "-//W3C//DTD SVG 1.1//EN" "http://www.w3.org/Graphics/SVG/1.1/DTD/svg11.dtd">
<!-- Creator: CorelDRAW X7 -->
<svg xmlns="http://www.w3.org/2000/svg" xml:space="preserve" width="8.5in" height="11in" version="1.1" style="shape-rendering:geometricPrecision; text-rendering:geometricPrecision; image-rendering:optimizeQuality; fill-rule:evenodd; clip-rule:evenodd"
viewBox="0 0 8500 11000"
 xmlns:xlink="http://www.w3.org/1999/xlink">
 <defs>
  <style type="text/css">
   <![CDATA[
    .str0 {stroke:#373435;stroke-width:6.94488}
    .fil3 {fill:none}
    .fil4 {fill:#16428D}
    .fil2 {fill:#18428C}
    .fil1 {fill:#1F57B6}
    .fil0 {fill:#3F7ADE}
   ]]>
  </style>
 </defs>
 <g id="Layer_x0020_1">
  <metadata id="CorelCorpID_0Corel-Layer"/>
  <path class="fil0" d="M5361 5305c-933,224 -1437,54 -2264,-341 -677,-324 -1550,-236 -1770,657 1199,-1410 2214,1135 4034,-316z"/>
  <path class="fil1" d="M7090 5219c-195,-1282 -1641,-1043 -2170,-764 -529,280 -648,348 -1414,506 285,144 567,296 925,304 446,-230 759,-335 1111,-470 1183,-452 1565,537 1548,424z"/>
  <polygon class="fil2" points="5616,3599 5620,3959 5986,3960 5980,3599 "/>
  <polygon class="fil2" points="3829,4259 3827,4624 4195,4625 4192,4260 "/>
  <polygon class="fil3 str0" points="4724,3043 5086,3040 5088,2686 4726,2687 "/>
  <path class="fil2" d="M2983 4163l0 751 271 124 5 -710 757 -442 758 444 -4 205 280 -140 1 -758 749 -437 759 435 1 755 269 218 4 -1132 -890 -514 -1 -374 -1035 -598 -1035 597 3 1062 -892 514zm1174 -523l614 362 -2 -526 891 -516 1 -209 -750 -434 -755 427 1 896z"/>
  <path class="fil4" d="M3373 5808c1678,430 2051,-642 3134,-509 481,89 762,345 839,826 -554,-753 -1273,-394 -1827,-130 -353,150 -1403,571 -2146,-187z"/>
  <polygon class="fil2" points="4717,2683 4721,3047 5095,3048 5090,2683 "/>
 </g>
</svg>
